<svg width="97" height="97" viewBox="0 0 97 97" fill="none" xmlns="http://www.w3.org/2000/svg">
<path d="M72.3113 51.2003C73.9912 47.5518 74.5988 44.4525 74.4426 41.776C74.5241 42.1555 74.5918 42.5442 74.6417 42.9399L74.6417 42.9405C75.589 50.3951 74.1386 57.055 69.4498 62.2826L69.4496 62.2829C69.2967 62.4536 69.1599 62.6177 69.0361 62.7662C69.0221 62.783 69.0083 62.7995 68.9947 62.8158C68.8633 62.9733 68.748 63.1097 68.6322 63.2323L64.8584 66.54C64.1482 67.0464 63.5221 67.4792 62.795 67.9186L62.7941 67.9191C61.4992 68.7054 59.9088 69.5487 58.3948 70.1198L58.3947 70.1199C51.5188 72.7165 43.7959 73.3314 36.4413 70.5542C33.0601 69.272 30.1019 67.4186 27.739 65.1408C25.6078 63.0823 24.5266 61.3919 23.846 60.0199C23.5391 59.401 23.3121 58.8444 23.102 58.3289C23.0772 58.2681 23.0527 58.208 23.0283 58.1483C22.8169 57.6317 22.6096 57.1404 22.3451 56.7018C22.2937 56.2915 22.1842 55.8437 22.0749 55.4146C22.0589 55.3519 22.0429 55.2896 22.027 55.2275C21.9196 54.8084 21.8156 54.4027 21.7474 54.016L21.7473 54.015C21.6781 53.6271 21.6228 53.2294 21.5807 52.8232C22.3842 55.2375 23.6431 57.3007 24.9746 58.8619C28.541 63.0469 34.5549 66.5516 41.001 67.4599C48.2176 68.4768 54.574 67.7076 60.845 64.8413C65.8371 62.5615 69.6827 56.9132 72.3113 51.2003ZM35.2633 27.8357C35.1873 27.8354 35.1038 27.8325 35.0108 27.8271L34.982 27.8619L35.0028 27.9549C35.0894 27.9148 35.1762 27.8751 35.2633 27.8357ZM34.9783 27.8451L34.9737 27.8248C34.9796 27.8252 34.9855 27.8255 34.9913 27.8259L34.9783 27.8451ZM34.8309 28.3158C34.9218 28.323 35.0068 28.3283 35.087 28.3316C35.1889 28.3359 35.2829 28.337 35.371 28.3346C35.3706 28.3351 35.3702 28.3356 35.3698 28.3362L34.8309 28.3158Z" fill="#DCA83B" stroke="#530D11"/>
<path d="M61.0446 64.0268C55.1982 67.9164 46.9911 68.9466 39.519 67.3297C32.0454 65.7124 25.4226 61.4752 22.6416 54.9641C18.1125 44.3607 24.9171 32.2645 35.9121 28.0067C53.2322 21.2996 67.4547 28.819 73.1328 37.3537C75.7705 41.3183 75.7318 45.9778 73.537 50.67C71.3366 55.3743 66.9762 60.0805 61.0446 64.0268Z" fill="#F1BD46" stroke="#530D11"/>
<path fill-rule="evenodd" clip-rule="evenodd" d="M44.01 38.144C45.5239 37.5365 57.1084 36.6526 62.7114 36.2866L54.6231 52.7099L51.6882 44.3184L44.01 38.144ZM41.0442 39.938L48.6355 46.1322L51.2935 54.2634L33.2028 57.1737L41.0442 39.938Z" fill="#530D11"/>
<path fill-rule="evenodd" clip-rule="evenodd" d="M68.1948 31.5625C65.6364 29.3916 62.6034 27.8018 59.3267 26.7696L22.6611 54.2446C23.4036 55.9221 24.3576 57.3785 25.3547 58.5474C26.2475 59.5951 27.2988 60.6004 28.475 61.5312L68.1948 31.5625ZM21.2158 46.5828C30.7871 39.4501 42.5918 30.6443 49.6994 25.318C46.1917 25.307 42.6565 25.825 39.3204 26.8492L23.6381 38.6492C23.451 38.978 23.2721 39.3127 23.1017 39.6532C21.899 42.0554 21.3304 44.3888 21.2158 46.5828Z" fill="#FFD77C"/>
<path fill-rule="evenodd" clip-rule="evenodd" d="M42.9693 36.2834C44.4831 35.6759 56.0676 34.792 61.6706 34.426L53.5823 50.8493L50.6474 42.4578L42.9693 36.2834ZM40.0029 38.0771L47.5942 44.2713L50.2522 52.4026L32.1615 55.3128L40.0029 38.0771Z" fill="#FFE6AE"/>
<path fill-rule="evenodd" clip-rule="evenodd" d="M58.1321 34.6826C52.2008 35.1146 44.2075 35.7974 42.9677 36.2949L49.274 41.3661L58.1321 34.6826ZM46.5414 43.4278L40.0004 38.0906L32.8842 53.7322L46.5414 43.4278Z" fill="#FFFCF6"/>
</svg>
